<svg width="100" height="100" viewBox="0 0 100 100" fill="none" xmlns="http://www.w3.org/2000/svg">
<rect width="100" height="100" rx="16" fill="#3907FF"/>
<path d="M71.2729 28.4398L51.3979 19.6065C51.1153 19.4809 50.8095 19.416 50.5002 19.416C50.1909 19.416 49.8851 19.4809 49.6025 19.6065L29.7275 28.4398C29.6833 28.4597 29.6524 28.4928 29.6083 28.5171C29.5464 28.548 29.4802 28.5679 29.4228 28.6055C29.3742 28.6386 29.3366 28.6805 29.2903 28.7159C29.1288 28.8358 28.9873 28.9804 28.8707 29.1443C28.8265 29.2061 28.7801 29.2613 28.7404 29.3232C28.6747 29.4399 28.6185 29.5617 28.5726 29.6875C28.5527 29.7472 28.5218 29.8024 28.5041 29.862C28.4486 30.056 28.4197 30.2565 28.418 30.4582V52.5416C28.418 53.4161 28.9303 54.2045 29.7297 54.56L49.6047 63.3933C49.8918 63.5214 50.1966 63.5832 50.5013 63.5832C50.8088 63.5754 51.1112 63.5031 51.3891 63.3712L51.3979 63.3933L71.2729 54.56C71.6635 54.3868 71.9955 54.1038 72.2283 53.7455C72.4612 53.3872 72.585 52.9689 72.5846 52.5416V30.4582C72.585 30.0309 72.4612 29.6127 72.2283 29.2544C71.9955 28.896 71.6635 28.6131 71.2729 28.4398ZM50.5013 24.043L64.9394 30.4582L50.5013 36.8735L47.6128 35.5904L36.0654 30.4582L50.5013 24.043ZM52.7096 57.9763V40.727L68.168 33.8569V51.1084L52.7096 57.9763Z" fill="#F5F5F5"/>
<path d="M28.82 81V71.5651H32.5977C33.2918 71.5651 33.8707 71.668 34.3345 71.8738C34.7982 72.0795 35.1468 72.3652 35.3802 72.7307C35.6136 73.0931 35.7303 73.5107 35.7303 73.9837C35.7303 74.3523 35.6566 74.6763 35.5092 74.9558C35.3618 75.2322 35.1591 75.4595 34.9011 75.6376C34.6462 75.8127 34.3544 75.937 34.0258 76.0107V76.1029C34.3851 76.1182 34.7214 76.2196 35.0347 76.4069C35.351 76.5943 35.6075 76.8569 35.8041 77.1947C36.0006 77.5295 36.0989 77.9287 36.0989 78.3925C36.0989 78.8931 35.9745 79.34 35.7257 79.7331C35.48 80.1232 35.1161 80.4318 34.6339 80.6591C34.1517 80.8864 33.5574 81 32.851 81H28.82ZM30.8148 79.3692H32.441C32.9969 79.3692 33.4023 79.2632 33.6572 79.0513C33.9122 78.8363 34.0396 78.5507 34.0396 78.1944C34.0396 77.9334 33.9767 77.703 33.8507 77.5034C33.7248 77.3037 33.5451 77.1471 33.3117 77.0335C33.0814 76.9198 32.8065 76.863 32.4871 76.863H30.8148V79.3692ZM30.8148 75.5132H32.2936C32.567 75.5132 32.8096 75.4656 33.0215 75.3704C33.2365 75.2721 33.4054 75.1339 33.5283 74.9558C33.6542 74.7776 33.7171 74.5642 33.7171 74.3154C33.7171 73.9745 33.5958 73.6996 33.3532 73.4908C33.1136 73.2819 32.7727 73.1775 32.3305 73.1775H30.8148V75.5132ZM39.3778 81.1336C38.9264 81.1336 38.524 81.0553 38.1708 80.8986C37.8176 80.7389 37.5382 80.504 37.3324 80.1938C37.1297 79.8805 37.0283 79.4905 37.0283 79.0236C37.0283 78.6305 37.1005 78.3004 37.2449 78.0332C37.3892 77.766 37.5858 77.551 37.8345 77.3882C38.0833 77.2254 38.3659 77.1026 38.6822 77.0197C39.0016 76.9367 39.3364 76.8784 39.6865 76.8446C40.098 76.8016 40.4297 76.7617 40.6816 76.7248C40.9334 76.6849 41.1162 76.6265 41.2298 76.5498C41.3434 76.473 41.4003 76.3593 41.4003 76.2088V76.1812C41.4003 75.8894 41.3081 75.6637 41.1238 75.504C40.9426 75.3443 40.6847 75.2644 40.3499 75.2644C39.9967 75.2644 39.7157 75.3428 39.5068 75.4994C39.298 75.6529 39.1598 75.8464 39.0922 76.0799L37.2771 75.9324C37.3692 75.5025 37.5504 75.1308 37.8207 74.8176C38.091 74.5012 38.4396 74.2586 38.8665 74.0897C39.2965 73.9177 39.794 73.8317 40.3591 73.8317C40.7522 73.8317 41.1285 73.8778 41.4878 73.9699C41.8502 74.062 42.1711 74.2049 42.4506 74.3983C42.7332 74.5918 42.9559 74.8406 43.1186 75.1447C43.2814 75.4456 43.3628 75.8065 43.3628 76.2273V81H41.5016V80.0187H41.4463C41.3327 80.2399 41.1807 80.4349 40.9902 80.6038C40.7998 80.7697 40.571 80.9002 40.3038 80.9954C40.0366 81.0875 39.728 81.1336 39.3778 81.1336ZM39.9399 79.7792C40.2286 79.7792 40.4835 79.7224 40.7046 79.6087C40.9258 79.492 41.0993 79.3354 41.2252 79.1388C41.3511 78.9423 41.4141 78.7196 41.4141 78.4708V77.7199C41.3527 77.7598 41.2682 77.7967 41.1607 77.8305C41.0563 77.8612 40.938 77.8904 40.806 77.918C40.6739 77.9426 40.5418 77.9656 40.4098 77.9871C40.2777 78.0055 40.1579 78.0224 40.0504 78.0378C39.8201 78.0716 39.6189 78.1253 39.4469 78.199C39.275 78.2727 39.1414 78.3725 39.0461 78.4985C38.9509 78.6213 38.9033 78.7749 38.9033 78.9592C38.9033 79.2264 39.0001 79.4306 39.1936 79.5719C39.3901 79.7101 39.6389 79.7792 39.9399 79.7792ZM44.8854 81V73.9238H46.788V75.1585H46.8617C46.9907 74.7193 47.2072 74.3876 47.5113 74.1634C47.8153 73.9361 48.1655 73.8225 48.5617 73.8225C48.6599 73.8225 48.7659 73.8286 48.8795 73.8409C48.9932 73.8532 49.093 73.8701 49.179 73.8916V75.633C49.0868 75.6053 48.9594 75.5808 48.7966 75.5593C48.6338 75.5378 48.4849 75.527 48.3497 75.527C48.061 75.527 47.8031 75.59 47.5758 75.7159C47.3516 75.8388 47.1734 76.0107 47.0414 76.2319C46.9124 76.453 46.8479 76.7079 46.8479 76.9966V81H44.8854ZM52.0088 81.1336C51.5573 81.1336 51.1549 81.0553 50.8017 80.8986C50.4486 80.7389 50.1691 80.504 49.9633 80.1938C49.7606 79.8805 49.6592 79.4905 49.6592 79.0236C49.6592 78.6305 49.7314 78.3004 49.8758 78.0332C50.0201 77.766 50.2167 77.551 50.4654 77.3882C50.7142 77.2254 50.9968 77.1026 51.3131 77.0197C51.6325 76.9367 51.9673 76.8784 52.3174 76.8446C52.729 76.8016 53.0607 76.7617 53.3125 76.7248C53.5643 76.6849 53.7471 76.6265 53.8607 76.5498C53.9744 76.473 54.0312 76.3593 54.0312 76.2088V76.1812C54.0312 75.8894 53.939 75.6637 53.7548 75.504C53.5736 75.3443 53.3156 75.2644 52.9808 75.2644C52.6276 75.2644 52.3466 75.3428 52.1377 75.4994C51.9289 75.6529 51.7907 75.8464 51.7231 76.0799L49.908 75.9324C50.0002 75.5025 50.1814 75.1308 50.4516 74.8176C50.7219 74.5012 51.0705 74.2586 51.4974 74.0897C51.9274 73.9177 52.4249 73.8317 52.99 73.8317C53.3831 73.8317 53.7594 73.8778 54.1187 73.9699C54.4811 74.062 54.8021 74.2049 55.0815 74.3983C55.3641 74.5918 55.5868 74.8406 55.7495 75.1447C55.9123 75.4456 55.9937 75.8065 55.9937 76.2273V81H54.1325V80.0187H54.0772C53.9636 80.2399 53.8116 80.4349 53.6212 80.6038C53.4307 80.7697 53.2019 80.9002 52.9347 80.9954C52.6675 81.0875 52.3589 81.1336 52.0088 81.1336ZM52.5708 79.7792C52.8595 79.7792 53.1144 79.7224 53.3355 79.6087C53.5567 79.492 53.7302 79.3354 53.8561 79.1388C53.982 78.9423 54.045 78.7196 54.045 78.4708V77.7199C53.9836 77.7598 53.8991 77.7967 53.7916 77.8305C53.6872 77.8612 53.5689 77.8904 53.4369 77.918C53.3048 77.9426 53.1728 77.9656 53.0407 77.9871C52.9086 78.0055 52.7889 78.0224 52.6814 78.0378C52.451 78.0716 52.2498 78.1253 52.0779 78.199C51.9059 78.2727 51.7723 78.3725 51.6771 78.4985C51.5818 78.6213 51.5342 78.7749 51.5342 78.9592C51.5342 79.2264 51.631 79.4306 51.8245 79.5719C52.021 79.7101 52.2698 79.7792 52.5708 79.7792ZM59.4788 76.9091V81H57.5163V73.9238H59.3867V75.1723H59.4696C59.6262 74.7607 59.8888 74.4352 60.2574 74.1956C60.6259 73.953 61.0728 73.8317 61.598 73.8317C62.0894 73.8317 62.5178 73.9392 62.8833 74.1542C63.2488 74.3692 63.5329 74.6763 63.7356 75.0756C63.9383 75.4717 64.0396 75.9447 64.0396 76.4945V81H62.0771V76.8446C62.0802 76.4115 61.9696 76.0737 61.7454 75.8311C61.5212 75.5854 61.2125 75.4625 60.8194 75.4625C60.5553 75.4625 60.3219 75.5193 60.1192 75.633C59.9195 75.7466 59.7629 75.9125 59.6493 76.1305C59.5387 76.3455 59.4819 76.605 59.4788 76.9091ZM68.7743 83.801C68.1386 83.801 67.5934 83.7135 67.1389 83.5384C66.6874 83.3664 66.3281 83.1314 66.0609 82.8335C65.7937 82.5356 65.6202 82.2009 65.5403 81.8292L67.3554 81.5851C67.4107 81.7264 67.4982 81.8584 67.618 81.9813C67.7378 82.1041 67.896 82.2024 68.0925 82.2761C68.2922 82.3529 68.5348 82.3913 68.8204 82.3913C69.2473 82.3913 69.599 82.2869 69.8754 82.078C70.1549 81.8722 70.2946 81.5267 70.2946 81.0415V79.7469H70.2117C70.1257 79.9435 69.9967 80.1293 69.8247 80.3044C69.6527 80.4794 69.4316 80.6222 69.1613 80.7328C68.891 80.8434 68.5686 80.8986 68.1939 80.8986C67.6625 80.8986 67.1788 80.7758 66.7427 80.5301C66.3097 80.2813 65.9641 79.902 65.7062 79.3922C65.4512 78.8793 65.3238 78.2313 65.3238 77.4481C65.3238 76.6465 65.4543 75.977 65.7154 75.4395C65.9764 74.902 66.3235 74.4997 66.7565 74.2325C67.1926 73.9653 67.6702 73.8317 68.1893 73.8317C68.5855 73.8317 68.9172 73.8993 69.1844 74.0344C69.4515 74.1665 69.6665 74.3323 69.8293 74.5319C69.9952 74.7285 70.1226 74.922 70.2117 75.1124H70.2854V73.9238H72.2341V81.0691C72.2341 81.6711 72.0867 82.1748 71.7918 82.5802C71.497 82.9856 71.0885 83.2896 70.5664 83.4923C70.0474 83.6981 69.45 83.801 68.7743 83.801ZM68.8158 79.4244C69.1321 79.4244 69.3993 79.3461 69.6174 79.1895C69.8385 79.0298 70.0074 78.8025 70.1242 78.5077C70.2439 78.2098 70.3038 77.8535 70.3038 77.4389C70.3038 77.0243 70.2455 76.6649 70.1288 76.3609C70.0121 76.0537 69.8431 75.8157 69.622 75.6468C69.4009 75.4779 69.1321 75.3934 68.8158 75.3934C68.4933 75.3934 68.2215 75.481 68.0004 75.656C67.7793 75.828 67.6119 76.0676 67.4982 76.3747C67.3846 76.6818 67.3278 77.0365 67.3278 77.4389C67.3278 77.8474 67.3846 78.2006 67.4982 78.4985C67.6149 78.7933 67.7823 79.0221 68.0004 79.1849C68.2215 79.3446 68.4933 79.4244 68.8158 79.4244Z" fill="white"/>
</svg>
