<svg width="100" height="100" viewBox="0 0 100 100" fill="none" xmlns="http://www.w3.org/2000/svg">
<rect width="100" height="100" rx="16" fill="#FFC107"/>
<path d="M50.0013 49.125C45.938 49.125 45.5846 47.2258 45.5846 46.9167H41.168C41.168 48.9483 42.6255 52.5479 47.793 53.365V55.75H52.2096V53.365C56.6263 52.6142 58.8346 49.7654 58.8346 46.9167C58.8346 44.4433 57.6863 40.2917 50.0013 40.2917C45.5846 40.2917 45.5846 38.9004 45.5846 38.0833C45.5846 37.2662 47.1305 35.875 50.0013 35.875C52.8721 35.875 53.0709 37.2883 53.093 38.0833H57.5096C57.4798 36.5789 56.9387 35.1295 55.9754 33.9735C55.0121 32.8176 53.684 32.024 52.2096 31.7233V29.25H47.793V31.6571C43.3763 32.3858 41.168 35.2346 41.168 38.0833C41.168 40.5567 42.3163 44.7083 50.0013 44.7083C54.418 44.7083 54.418 46.21 54.418 46.9167C54.418 47.6233 53.0488 49.125 50.0013 49.125Z" fill="black"/>
<path d="M34.543 20.4165H27.918V24.8332H32.3346V62.3748C32.3346 62.9605 32.5673 63.5222 32.9814 63.9364C33.3956 64.3505 33.9573 64.5832 34.543 64.5832H65.4596C66.0453 64.5832 66.607 64.3505 67.0212 63.9364C67.4353 63.5222 67.668 62.9605 67.668 62.3748V24.8332H72.0846V20.4165H34.543ZM63.2513 60.1665H36.7513V24.8332H63.2513V60.1665Z" fill="black"/>
<path d="M27.32 82V72.5651H29.3148V76.4579H33.3643V72.5651H35.3544V82H33.3643V78.1026H29.3148V82H27.32ZM41.5 78.9871V74.9238H43.4625V82H41.5783V80.7147H41.5046C41.3449 81.1293 41.0792 81.4625 40.7076 81.7144C40.3391 81.9662 39.8891 82.0921 39.3578 82.0921C38.8848 82.0921 38.4687 81.9846 38.1093 81.7697C37.75 81.5547 37.469 81.2491 37.2663 80.8529C37.0666 80.4567 36.9653 79.9822 36.9622 79.4294V74.9238H38.9248V79.0792C38.9278 79.4969 39.0399 79.8271 39.2611 80.0697C39.4822 80.3123 39.7786 80.4337 40.1502 80.4337C40.3867 80.4337 40.6078 80.3799 40.8136 80.2724C41.0193 80.1619 41.1852 79.9991 41.3111 79.7841C41.4401 79.5691 41.5031 79.3034 41.5 78.9871ZM48.7961 74.9238V76.398H44.5348V74.9238H48.7961ZM45.5022 73.2285H47.4648V79.8256C47.4648 80.0068 47.4924 80.148 47.5477 80.2494C47.603 80.3477 47.6797 80.4168 47.778 80.4567C47.8794 80.4966 47.9961 80.5166 48.1281 80.5166C48.2203 80.5166 48.3124 80.5089 48.4046 80.4936C48.4967 80.4751 48.5673 80.4613 48.6165 80.4521L48.9251 81.9125C48.8269 81.9432 48.6887 81.9785 48.5105 82.0184C48.3324 82.0614 48.1159 82.0875 47.861 82.0967C47.388 82.1152 46.9734 82.0522 46.6171 81.9079C46.2639 81.7635 45.989 81.5393 45.7925 81.2353C45.5959 80.9312 45.4992 80.5473 45.5022 80.0835V73.2285ZM52.0924 82.1336C51.6409 82.1336 51.2386 82.0553 50.8854 81.8986C50.5322 81.7389 50.2527 81.504 50.0469 81.1938C49.8442 80.8805 49.7429 80.4905 49.7429 80.0236C49.7429 79.6305 49.815 79.3004 49.9594 79.0332C50.1037 78.766 50.3003 78.551 50.5491 78.3882C50.7978 78.2254 51.0804 78.1026 51.3967 78.0197C51.7161 77.9367 52.0509 77.8784 52.401 77.8446C52.8126 77.8016 53.1443 77.7617 53.3961 77.7248C53.648 77.6849 53.8307 77.6265 53.9443 77.5498C54.058 77.473 54.1148 77.3593 54.1148 77.2088V77.1812C54.1148 76.8894 54.0227 76.6637 53.8384 76.504C53.6572 76.3443 53.3992 76.2644 53.0644 76.2644C52.7112 76.2644 52.4302 76.3428 52.2214 76.4994C52.0125 76.6529 51.8743 76.8464 51.8067 77.0799L49.9916 76.9324C50.0838 76.5025 50.265 76.1308 50.5352 75.8176C50.8055 75.5012 51.1541 75.2586 51.581 75.0897C52.011 74.9177 52.5085 74.8317 53.0736 74.8317C53.4668 74.8317 53.843 74.8778 54.2023 74.9699C54.5647 75.062 54.8857 75.2049 55.1652 75.3983C55.4477 75.5918 55.6704 75.8406 55.8332 76.1447C55.9959 76.4456 56.0773 76.8065 56.0773 77.2273V82H54.2161V81.0187H54.1609C54.0472 81.2399 53.8952 81.4349 53.7048 81.6038C53.5144 81.7697 53.2856 81.9002 53.0184 81.9954C52.7512 82.0875 52.4425 82.1336 52.0924 82.1336ZM52.6544 80.7792C52.9431 80.7792 53.198 80.7224 53.4191 80.6087C53.6403 80.492 53.8138 80.3354 53.9397 80.1388C54.0656 79.9423 54.1286 79.7196 54.1286 79.4708V78.7199C54.0672 78.7598 53.9827 78.7967 53.8752 78.8305C53.7708 78.8612 53.6526 78.8904 53.5205 78.918C53.3884 78.9426 53.2564 78.9656 53.1243 78.9871C52.9922 79.0055 52.8725 79.0224 52.765 79.0378C52.5346 79.0716 52.3335 79.1253 52.1615 79.199C51.9895 79.2727 51.8559 79.3725 51.7607 79.4985C51.6655 79.6213 51.6179 79.7749 51.6179 79.9592C51.6179 80.2264 51.7146 80.4306 51.9081 80.5719C52.1047 80.7101 52.3534 80.7792 52.6544 80.7792ZM59.5624 77.9091V82H57.5999V74.9238H59.4703V76.1723H59.5532C59.7098 75.7607 59.9724 75.4352 60.341 75.1956C60.7095 74.953 61.1564 74.8317 61.6816 74.8317C62.173 74.8317 62.6014 74.9392 62.9669 75.1542C63.3324 75.3692 63.6165 75.6763 63.8192 76.0756C64.0219 76.4717 64.1232 76.9447 64.1232 77.4945V82H62.1607V77.8446C62.1638 77.4115 62.0532 77.0737 61.829 76.8311C61.6048 76.5854 61.2961 76.4625 60.903 76.4625C60.6389 76.4625 60.4055 76.5193 60.2028 76.633C60.0031 76.7466 59.8465 76.9125 59.7329 77.1305C59.6223 77.3455 59.5655 77.605 59.5624 77.9091ZM68.858 84.801C68.2222 84.801 67.6771 84.7135 67.2225 84.5384C66.771 84.3664 66.4117 84.1314 66.1445 83.8335C65.8773 83.5356 65.7038 83.2009 65.6239 82.8292L67.439 82.5851C67.4943 82.7264 67.5819 82.8584 67.7016 82.9813C67.8214 83.1041 67.9796 83.2024 68.1761 83.2761C68.3758 83.3529 68.6184 83.3913 68.904 83.3913C69.3309 83.3913 69.6826 83.2869 69.959 83.078C70.2385 82.8722 70.3782 82.5267 70.3782 82.0415V80.7469H70.2953C70.2093 80.9435 70.0803 81.1293 69.9083 81.3044C69.7363 81.4794 69.5152 81.6222 69.2449 81.7328C68.9747 81.8434 68.6522 81.8986 68.2775 81.8986C67.7462 81.8986 67.2624 81.7758 66.8263 81.5301C66.3933 81.2813 66.0478 80.902 65.7898 80.3922C65.5349 79.8793 65.4074 79.2313 65.4074 78.4481C65.4074 77.6465 65.5379 76.977 65.799 76.4395C66.06 75.902 66.4071 75.4997 66.8401 75.2325C67.2763 74.9653 67.7538 74.8317 68.2729 74.8317C68.6691 74.8317 69.0008 74.8993 69.268 75.0344C69.5352 75.1665 69.7502 75.3323 69.9129 75.5319C70.0788 75.7285 70.2062 75.922 70.2953 76.1124H70.369V74.9238H72.3177V82.0691C72.3177 82.6711 72.1703 83.1748 71.8755 83.5802C71.5806 83.9856 71.1721 84.2896 70.65 84.4923C70.131 84.6981 69.5336 84.801 68.858 84.801ZM68.8994 80.4244C69.2158 80.4244 69.483 80.3461 69.701 80.1895C69.9221 80.0298 70.0911 79.8025 70.2078 79.5077C70.3276 79.2098 70.3874 78.8535 70.3874 78.4389C70.3874 78.0243 70.3291 77.6649 70.2124 77.3609C70.0957 77.0537 69.9268 76.8157 69.7056 76.6468C69.4845 76.4779 69.2158 76.3934 68.8994 76.3934C68.5769 76.3934 68.3051 76.481 68.084 76.656C67.8629 76.828 67.6955 77.0676 67.5819 77.3747C67.4682 77.6818 67.4114 78.0365 67.4114 78.4389C67.4114 78.8474 67.4682 79.2006 67.5819 79.4985C67.6986 79.7933 67.8659 80.0221 68.084 80.1849C68.3051 80.3446 68.5769 80.4244 68.8994 80.4244Z" fill="black"/>
</svg>
