<svg width="100" height="100" viewBox="0 0 100 100" fill="none" xmlns="http://www.w3.org/2000/svg">
<rect width="100" height="100" rx="16" fill="#195F87"/>
<path d="M46.6875 62.375C48.5169 62.375 50 60.8919 50 59.0625C50 57.2331 48.5169 55.75 46.6875 55.75C44.8581 55.75 43.375 57.2331 43.375 59.0625C43.375 60.8919 44.8581 62.375 46.6875 62.375Z" fill="white"/>
<path d="M62.1445 62.375C63.974 62.375 65.457 60.8919 65.457 59.0625C65.457 57.2331 63.974 55.75 62.1445 55.75C60.3151 55.75 58.832 57.2331 58.832 59.0625C58.832 60.8919 60.3151 62.375 62.1445 62.375Z" fill="white"/>
<path d="M69.8763 31.4583H39.6972L37.1488 25.3413C36.8143 24.5355 36.248 23.8473 35.5219 23.3637C34.7958 22.8801 33.9424 22.623 33.07 22.625H27.918V27.0417H33.0722L43.5463 52.1836C43.8886 53.0051 44.6947 53.5417 45.5846 53.5417H63.2513C64.1722 53.5417 64.9959 52.9697 65.3205 52.1107L71.9455 34.444C72.0696 34.1097 72.1111 33.7503 72.0666 33.3964C72.022 33.0426 71.8926 32.7047 71.6895 32.4116C71.4863 32.1185 71.2154 31.8787 70.8997 31.7128C70.584 31.5468 70.2329 31.4595 69.8763 31.4583ZM54.418 49.125L47.793 42.5H52.2096V35.875H56.6263V42.5H61.043L54.418 49.125Z" fill="white"/>
<path d="M17.32 82V72.5651H21.0424C21.758 72.5651 22.3676 72.7018 22.8713 72.9751C23.375 73.2454 23.7589 73.6216 24.023 74.1038C24.2902 74.5829 24.4238 75.1357 24.4238 75.7623C24.4238 76.3888 24.2887 76.9416 24.0184 77.4208C23.7482 77.8999 23.3566 78.273 22.8437 78.5402C22.3338 78.8074 21.7165 78.941 20.9917 78.941H18.6192V77.3424H20.6692C21.0531 77.3424 21.3695 77.2764 21.6182 77.1443C21.8701 77.0092 22.0574 76.8234 22.1803 76.5869C22.3062 76.3474 22.3692 76.0725 22.3692 75.7623C22.3692 75.449 22.3062 75.1757 22.1803 74.9423C22.0574 74.7058 21.8701 74.523 21.6182 74.394C21.3664 74.262 21.047 74.1959 20.66 74.1959H19.3148V82H17.32ZM28.7935 82.1382C28.0656 82.1382 27.439 81.9908 26.9139 81.6959C26.3917 81.398 25.9894 80.9773 25.7068 80.4337C25.4243 79.887 25.283 79.2405 25.283 78.4942C25.283 77.7663 25.4243 77.1275 25.7068 76.5777C25.9894 76.0279 26.3871 75.5995 26.9 75.2924C27.416 74.9853 28.021 74.8317 28.7151 74.8317C29.182 74.8317 29.6166 74.9069 30.0189 75.0574C30.4243 75.2049 30.7775 75.4275 31.0785 75.7254C31.3825 76.0233 31.619 76.398 31.7879 76.8495C31.9568 77.2979 32.0413 77.8231 32.0413 78.4251V78.9641H26.0662V77.7478H30.1939C30.1939 77.4653 30.1325 77.215 30.0097 76.9969C29.8868 76.7789 29.7164 76.6084 29.4983 76.4856C29.2833 76.3596 29.033 76.2967 28.7474 76.2967C28.4495 76.2967 28.1854 76.3658 27.955 76.504C27.7277 76.6391 27.5496 76.8219 27.4206 77.0522C27.2916 77.2795 27.2256 77.5329 27.2225 77.8123V78.9687C27.2225 79.3188 27.287 79.6213 27.416 79.8762C27.5481 80.1311 27.7339 80.3277 27.9734 80.4659C28.213 80.6041 28.4971 80.6732 28.8257 80.6732C29.0438 80.6732 29.2434 80.6425 29.4246 80.5811C29.6058 80.5197 29.7609 80.4275 29.8899 80.3047C30.0189 80.1818 30.1172 80.0313 30.1847 79.8532L31.9998 79.973C31.9077 80.4091 31.7188 80.7899 31.4332 81.1155C31.1506 81.438 30.7852 81.6898 30.3368 81.871C29.8914 82.0491 29.377 82.1382 28.7935 82.1382ZM33.322 82V74.9238H35.1924V76.1723H35.2753C35.4228 75.7577 35.6685 75.4306 36.0124 75.191C36.3564 74.9515 36.768 74.8317 37.2471 74.8317C37.7323 74.8317 38.1454 74.953 38.4863 75.1956C38.8272 75.4352 39.0545 75.7607 39.1682 76.1723H39.2419C39.3862 75.7669 39.6473 75.4429 40.025 75.2002C40.4059 74.9545 40.8558 74.8317 41.3748 74.8317C42.0352 74.8317 42.5711 75.0421 42.9826 75.4628C43.3973 75.8805 43.6046 76.4733 43.6046 77.2411V82H41.6467V77.6281C41.6467 77.235 41.5422 76.9401 41.3334 76.7436C41.1245 76.547 40.8635 76.4487 40.5502 76.4487C40.1939 76.4487 39.916 76.5623 39.7164 76.7896C39.5167 77.0138 39.4169 77.3102 39.4169 77.6787V82H37.5143V77.5866C37.5143 77.2396 37.4145 76.9631 37.2148 76.7574C37.0183 76.5516 36.7588 76.4487 36.4363 76.4487C36.2182 76.4487 36.0217 76.504 35.8466 76.6146C35.6746 76.7221 35.5379 76.8741 35.4366 77.0706C35.3352 77.2641 35.2846 77.4914 35.2846 77.7525V82H33.322ZM45.1916 82V72.5651H47.1542V76.1124H47.2141C47.3001 75.922 47.4244 75.7285 47.5872 75.5319C47.7531 75.3323 47.9681 75.1665 48.2322 75.0344C48.4994 74.8993 48.8311 74.8317 49.2273 74.8317C49.7432 74.8317 50.2193 74.9668 50.6554 75.2371C51.0915 75.5043 51.4401 75.9082 51.7012 76.4487C51.9622 76.9862 52.0928 77.6603 52.0928 78.4711C52.0928 79.2604 51.9653 79.9269 51.7104 80.4705C51.4585 81.0111 51.1146 81.4211 50.6784 81.7006C50.2454 81.977 49.7601 82.1152 49.2227 82.1152C48.8418 82.1152 48.5178 82.0522 48.2506 81.9263C47.9865 81.8004 47.77 81.6422 47.601 81.4518C47.4321 81.2583 47.3031 81.0633 47.2141 80.8667H47.1265V82H45.1916ZM47.1127 78.4619C47.1127 78.8827 47.1711 79.2497 47.2878 79.563C47.4045 79.8762 47.5734 80.1204 47.7945 80.2955C48.0157 80.4674 48.2844 80.5534 48.6007 80.5534C48.9201 80.5534 49.1904 80.4659 49.4115 80.2908C49.6327 80.1127 49.8001 79.867 49.9137 79.5537C50.0304 79.2374 50.0888 78.8735 50.0888 78.4619C50.0888 78.0534 50.0319 77.6941 49.9183 77.3839C49.8047 77.0737 49.6373 76.8311 49.4162 76.656C49.195 76.481 48.9232 76.3934 48.6007 76.3934C48.2813 76.3934 48.0111 76.4779 47.7899 76.6468C47.5719 76.8157 47.4045 77.0553 47.2878 77.3655C47.1711 77.6757 47.1127 78.0412 47.1127 78.4619ZM56.6271 82.1382C55.8992 82.1382 55.2726 81.9908 54.7475 81.6959C54.2254 81.398 53.823 80.9773 53.5405 80.4337C53.2579 79.887 53.1166 79.2405 53.1166 78.4942C53.1166 77.7663 53.2579 77.1275 53.5405 76.5777C53.823 76.0279 54.2207 75.5995 54.7336 75.2924C55.2496 74.9853 55.8547 74.8317 56.5488 74.8317C57.0156 74.8317 57.4502 74.9069 57.8525 75.0574C58.2579 75.2049 58.6111 75.4275 58.9121 75.7254C59.2161 76.0233 59.4526 76.398 59.6215 76.8495C59.7905 77.2979 59.8749 77.8231 59.8749 78.4251V78.9641H53.8998V77.7478H58.0276C58.0276 77.4653 57.9661 77.215 57.8433 76.9969C57.7204 76.7789 57.55 76.6084 57.3319 76.4856C57.1169 76.3596 56.8666 76.2967 56.581 76.2967C56.2831 76.2967 56.019 76.3658 55.7886 76.504C55.5613 76.6391 55.3832 76.8219 55.2542 77.0522C55.1252 77.2795 55.0592 77.5329 55.0561 77.8123V78.9687C55.0561 79.3188 55.1206 79.6213 55.2496 79.8762C55.3817 80.1311 55.5675 80.3277 55.807 80.4659C56.0466 80.6041 56.3307 80.6732 56.6593 80.6732C56.8774 80.6732 57.077 80.6425 57.2582 80.5811C57.4394 80.5197 57.5945 80.4275 57.7235 80.3047C57.8525 80.1818 57.9508 80.0313 58.0184 79.8532L59.8335 79.973C59.7413 80.4091 59.5524 80.7899 59.2668 81.1155C58.9843 81.438 58.6188 81.6898 58.1704 81.871C57.725 82.0491 57.2106 82.1382 56.6271 82.1382ZM63.1182 72.5651V82H61.1556V72.5651H63.1182ZM64.6903 82V74.9238H66.6528V82H64.6903ZM65.6761 74.0117C65.3844 74.0117 65.1341 73.9149 64.9252 73.7214C64.7194 73.5249 64.6166 73.2899 64.6166 73.0166C64.6166 72.7463 64.7194 72.5144 64.9252 72.3209C65.1341 72.1244 65.3844 72.0261 65.6761 72.0261C65.9679 72.0261 66.2167 72.1244 66.4224 72.3209C66.6313 72.5144 66.7357 72.7463 66.7357 73.0166C66.7357 73.2899 66.6313 73.5249 66.4224 73.7214C66.2167 73.9149 65.9679 74.0117 65.6761 74.0117ZM70.2427 82.1336C69.7912 82.1336 69.3889 82.0553 69.0357 81.8986C68.6825 81.7389 68.403 81.504 68.1973 81.1938C67.9945 80.8805 67.8932 80.4905 67.8932 80.0236C67.8932 79.6305 67.9654 79.3004 68.1097 79.0332C68.2541 78.766 68.4506 78.551 68.6994 78.3882C68.9482 78.2254 69.2307 78.1026 69.5471 78.0197C69.8665 77.9367 70.2012 77.8784 70.5514 77.8446C70.9629 77.8016 71.2946 77.7617 71.5465 77.7248C71.7983 77.6849 71.981 77.6265 72.0947 77.5498C72.2083 77.473 72.2651 77.3593 72.2651 77.2088V77.1812C72.2651 76.8894 72.173 76.6637 71.9887 76.504C71.8075 76.3443 71.5495 76.2644 71.2148 76.2644C70.8616 76.2644 70.5805 76.3428 70.3717 76.4994C70.1629 76.6529 70.0246 76.8464 69.9571 77.0799L68.142 76.9324C68.2341 76.5025 68.4153 76.1308 68.6856 75.8176C68.9559 75.5012 69.3044 75.2586 69.7313 75.0897C70.1613 74.9177 70.6589 74.8317 71.224 74.8317C71.6171 74.8317 71.9933 74.8778 72.3527 74.9699C72.7151 75.062 73.036 75.2049 73.3155 75.3983C73.598 75.5918 73.8207 75.8406 73.9835 76.1447C74.1463 76.4456 74.2277 76.8065 74.2277 77.2273V82H72.3665V81.0187H72.3112C72.1976 81.2399 72.0455 81.4349 71.8551 81.6038C71.6647 81.7697 71.4359 81.9002 71.1687 81.9954C70.9015 82.0875 70.5928 82.1336 70.2427 82.1336ZM70.8047 80.7792C71.0934 80.7792 71.3484 80.7224 71.5695 80.6087C71.7906 80.492 71.9641 80.3354 72.0901 80.1388C72.216 79.9423 72.2789 79.7196 72.2789 79.4708V78.7199C72.2175 78.7598 72.1331 78.7967 72.0256 78.8305C71.9211 78.8612 71.8029 78.8904 71.6708 78.918C71.5388 78.9426 71.4067 78.9656 71.2746 78.9871C71.1426 79.0055 71.0228 79.0224 70.9153 79.0378C70.685 79.0716 70.4838 79.1253 70.3118 79.199C70.1398 79.2727 70.0062 79.3725 69.911 79.4985C69.8158 79.6213 69.7682 79.7749 69.7682 79.9592C69.7682 80.2264 69.8649 80.4306 70.0584 80.5719C70.255 80.7101 70.5038 80.7792 70.8047 80.7792ZM77.7128 77.9091V82H75.7502V74.9238H77.6206V76.1723H77.7035C77.8602 75.7607 78.1228 75.4352 78.4913 75.1956C78.8599 74.953 79.3067 74.8317 79.8319 74.8317C80.3233 74.8317 80.7518 74.9392 81.1172 75.1542C81.4827 75.3692 81.7668 75.6763 81.9695 76.0756C82.1722 76.4717 82.2736 76.9447 82.2736 77.4945V82H80.311V77.8446C80.3141 77.4115 80.2035 77.0737 79.9793 76.8311C79.7551 76.5854 79.4465 76.4625 79.0534 76.4625C78.7892 76.4625 78.5558 76.5193 78.3531 76.633C78.1535 76.7466 77.9969 76.9125 77.8832 77.1305C77.7726 77.3455 77.7158 77.605 77.7128 77.9091Z" fill="white"/>
</svg>
