<svg width="100" height="100" viewBox="0 0 100 100" fill="none" xmlns="http://www.w3.org/2000/svg">
<rect width="100" height="100" rx="16" fill="#FF0743"/>
<path d="M38.957 46.9189H43.3737V51.3356H38.957V46.9189Z" fill="#F5F5F5"/>
<path d="M65.4583 20.4165H47.7917C46.6203 20.4165 45.4969 20.8818 44.6686 21.7101C43.8403 22.5384 43.375 23.6618 43.375 24.8332V38.0832H34.5417C32.1059 38.0832 30.125 40.064 30.125 42.4998V62.3748C30.125 62.9605 30.3577 63.5222 30.7718 63.9364C31.1859 64.3505 31.7476 64.5832 32.3333 64.5832H67.6667C68.2524 64.5832 68.8141 64.3505 69.2282 63.9364C69.6423 63.5222 69.875 62.9605 69.875 62.3748V24.8332C69.875 23.6618 69.4097 22.5384 68.5814 21.7101C67.7531 20.8818 66.6297 20.4165 65.4583 20.4165ZM34.5417 60.1665V42.4998H47.7917V60.1665H34.5417ZM54.4167 33.6665H50V29.2498H54.4167V33.6665ZM63.25 51.3332H58.8333V46.9165H63.25V51.3332ZM63.25 42.4998H58.8333V38.0832H63.25V42.4998ZM63.25 33.6665H58.8333V29.2498H63.25V33.6665Z" fill="#F5F5F5"/>
<path d="M28.9383 75.2786C28.9014 74.9069 28.7432 74.6182 28.4638 74.4125C28.1843 74.2067 27.805 74.1038 27.3259 74.1038C27.0003 74.1038 26.7254 74.1499 26.5012 74.242C26.277 74.3311 26.105 74.4555 25.9853 74.6152C25.8686 74.7749 25.8102 74.9561 25.8102 75.1588C25.8041 75.3277 25.8394 75.4751 25.9162 75.601C25.996 75.727 26.105 75.836 26.2432 75.9281C26.3814 76.0172 26.5412 76.0955 26.7224 76.1631C26.9036 76.2276 27.0971 76.2829 27.3028 76.3289L28.1505 76.5316C28.562 76.6238 28.9398 76.7466 29.2838 76.9002C29.6278 77.0537 29.9257 77.2426 30.1775 77.4668C30.4294 77.691 30.6244 77.9552 30.7626 78.2592C30.9039 78.5633 30.976 78.9119 30.9791 79.305C30.976 79.8824 30.8286 80.383 30.5369 80.8068C30.2482 81.2276 29.8305 81.5547 29.2838 81.7881C28.7402 82.0184 28.0845 82.1336 27.3166 82.1336C26.555 82.1336 25.8916 82.0169 25.3265 81.7835C24.7644 81.5501 24.3252 81.2045 24.0089 80.7469C23.6956 80.2862 23.5313 79.7165 23.516 79.0378H25.4463C25.4678 79.3541 25.5584 79.6182 25.7181 79.8302C25.8808 80.039 26.0974 80.1972 26.3676 80.3047C26.641 80.4091 26.9496 80.4613 27.2936 80.4613C27.6314 80.4613 27.9248 80.4122 28.1735 80.3139C28.4254 80.2156 28.6204 80.0789 28.7586 79.9039C28.8968 79.7288 28.9659 79.5276 28.9659 79.3004C28.9659 79.0885 28.9029 78.9103 28.777 78.766C28.6542 78.6216 28.473 78.4988 28.2334 78.3974C27.9969 78.2961 27.7067 78.2039 27.3627 78.121L26.3354 77.863C25.5399 77.6695 24.9119 77.367 24.4512 76.9555C23.9905 76.5439 23.7617 75.9896 23.7647 75.2924C23.7617 74.7211 23.9137 74.2221 24.2208 73.7951C24.531 73.3682 24.9564 73.035 25.4969 72.7955C26.0375 72.5559 26.6517 72.4361 27.3397 72.4361C28.0399 72.4361 28.6511 72.5559 29.1732 72.7955C29.6984 73.035 30.1069 73.3682 30.3986 73.7951C30.6904 74.2221 30.8409 74.7165 30.8501 75.2786H28.9383ZM36.8218 78.9871V74.9238H38.7843V82H36.9001V80.7147H36.8264C36.6667 81.1293 36.401 81.4625 36.0294 81.7144C35.6609 81.9662 35.2109 82.0921 34.6796 82.0921C34.2066 82.0921 33.7905 81.9846 33.4311 81.7697C33.0718 81.5547 32.7908 81.2491 32.5881 80.8529C32.3884 80.4567 32.2871 79.9822 32.284 79.4294V74.9238H34.2465V79.0792C34.2496 79.4969 34.3617 79.8271 34.5828 80.0697C34.804 80.3123 35.1004 80.4337 35.472 80.4337C35.7085 80.4337 35.9296 80.3799 36.1354 80.2724C36.3411 80.1619 36.507 79.9991 36.6329 79.7841C36.7619 79.5691 36.8249 79.3034 36.8218 78.9871ZM40.3541 84.6536V74.9238H42.289V76.1124H42.3765C42.4625 75.922 42.5869 75.7285 42.7497 75.5319C42.9155 75.3323 43.1305 75.1665 43.3947 75.0344C43.6619 74.8993 43.9936 74.8317 44.3897 74.8317C44.9057 74.8317 45.3818 74.9668 45.8179 75.2371C46.254 75.5043 46.6026 75.9082 46.8636 76.4487C47.1247 76.9862 47.2552 77.6603 47.2552 78.4711C47.2552 79.2604 47.1278 79.9269 46.8728 80.4705C46.621 81.0111 46.277 81.4211 45.8409 81.7006C45.4079 81.977 44.9226 82.1152 44.3851 82.1152C44.0043 82.1152 43.6803 82.0522 43.4131 81.9263C43.149 81.8004 42.9324 81.6422 42.7635 81.4518C42.5946 81.2583 42.4656 81.0633 42.3765 80.8667H42.3166V84.6536H40.3541ZM42.2752 78.4619C42.2752 78.8827 42.3335 79.2497 42.4502 79.563C42.567 79.8762 42.7359 80.1204 42.957 80.2955C43.1781 80.4674 43.4469 80.5534 43.7632 80.5534C44.0826 80.5534 44.3529 80.4659 44.574 80.2908C44.7951 80.1127 44.9625 79.867 45.0762 79.5537C45.1929 79.2374 45.2512 78.8735 45.2512 78.4619C45.2512 78.0534 45.1944 77.6941 45.0808 77.3839C44.9671 77.0737 44.7998 76.8311 44.5786 76.656C44.3575 76.481 44.0857 76.3934 43.7632 76.3934C43.4438 76.3934 43.1735 76.4779 42.9524 76.6468C42.7343 76.8157 42.567 77.0553 42.4502 77.3655C42.3335 77.6757 42.2752 78.0412 42.2752 78.4619ZM48.5636 84.6536V74.9238H50.4985V76.1124H50.586C50.672 75.922 50.7964 75.7285 50.9592 75.5319C51.125 75.3323 51.34 75.1665 51.6041 75.0344C51.8713 74.8993 52.203 74.8317 52.5992 74.8317C53.1152 74.8317 53.5912 74.9668 54.0273 75.2371C54.4635 75.5043 54.812 75.9082 55.0731 76.4487C55.3342 76.9862 55.4647 77.6603 55.4647 78.4711C55.4647 79.2604 55.3372 79.9269 55.0823 80.4705C54.8305 81.0111 54.4865 81.4211 54.0504 81.7006C53.6173 81.977 53.1321 82.1152 52.5946 82.1152C52.2138 82.1152 51.8897 82.0522 51.6225 81.9263C51.3584 81.8004 51.1419 81.6422 50.973 81.4518C50.8041 81.2583 50.6751 81.0633 50.586 80.8667H50.5261V84.6536H48.5636ZM50.4846 78.4619C50.4846 78.8827 50.543 79.2497 50.6597 79.563C50.7764 79.8762 50.9453 80.1204 51.1665 80.2955C51.3876 80.4674 51.6563 80.5534 51.9727 80.5534C52.2921 80.5534 52.5623 80.4659 52.7835 80.2908C53.0046 80.1127 53.172 79.867 53.2856 79.5537C53.4023 79.2374 53.4607 78.8735 53.4607 78.4619C53.4607 78.0534 53.4039 77.6941 53.2902 77.3839C53.1766 77.0737 53.0092 76.8311 52.7881 76.656C52.567 76.481 52.2951 76.3934 51.9727 76.3934C51.6533 76.3934 51.383 76.4779 51.1619 76.6468C50.9438 76.8157 50.7764 77.0553 50.6597 77.3655C50.543 77.6757 50.4846 78.0412 50.4846 78.4619ZM58.7356 72.5651V82H56.773V72.5651H58.7356ZM60.3077 82V74.9238H62.2702V82H60.3077ZM61.2935 74.0117C61.0018 74.0117 60.7515 73.9149 60.5426 73.7214C60.3368 73.5249 60.234 73.2899 60.234 73.0166C60.234 72.7463 60.3368 72.5144 60.5426 72.3209C60.7515 72.1244 61.0018 72.0261 61.2935 72.0261C61.5853 72.0261 61.8341 72.1244 62.0399 72.3209C62.2487 72.5144 62.3531 72.7463 62.3531 73.0166C62.3531 73.2899 62.2487 73.5249 62.0399 73.7214C61.8341 73.9149 61.5853 74.0117 61.2935 74.0117ZM67.0671 82.1382C66.3392 82.1382 65.7127 81.9908 65.1875 81.6959C64.6654 81.398 64.2631 80.9773 63.9805 80.4337C63.6979 79.887 63.5567 79.2405 63.5567 78.4942C63.5567 77.7663 63.6979 77.1275 63.9805 76.5777C64.2631 76.0279 64.6608 75.5995 65.1737 75.2924C65.6896 74.9853 66.2947 74.8317 66.9888 74.8317C67.4556 74.8317 67.8902 74.9069 68.2925 75.0574C68.6979 75.2049 69.0511 75.4275 69.3521 75.7254C69.6562 76.0233 69.8927 76.398 70.0616 76.8495C70.2305 77.2979 70.315 77.8231 70.315 78.4251V78.9641H64.3398V77.7478H68.4676C68.4676 77.4653 68.4062 77.215 68.2833 76.9969C68.1605 76.7789 67.99 76.6084 67.772 76.4856C67.557 76.3596 67.3067 76.2967 67.021 76.2967C66.7231 76.2967 66.459 76.3658 66.2287 76.504C66.0014 76.6391 65.8232 76.8219 65.6943 77.0522C65.5653 77.2795 65.4992 77.5329 65.4962 77.8123V78.9687C65.4962 79.3188 65.5607 79.6213 65.6896 79.8762C65.8217 80.1311 66.0075 80.3277 66.2471 80.4659C66.4866 80.6041 66.7707 80.6732 67.0994 80.6732C67.3174 80.6732 67.517 80.6425 67.6982 80.5811C67.8795 80.5197 68.0346 80.4275 68.1635 80.3047C68.2925 80.1818 68.3908 80.0313 68.4584 79.8532L70.2735 79.973C70.1814 80.4091 69.9925 80.7899 69.7068 81.1155C69.4243 81.438 69.0588 81.6898 68.6104 81.871C68.1651 82.0491 67.6506 82.1382 67.0671 82.1382ZM71.5957 82V74.9238H73.4983V76.1585H73.572C73.701 75.7193 73.9175 75.3876 74.2216 75.1634C74.5256 74.9361 74.8758 74.8225 75.272 74.8225C75.3702 74.8225 75.4762 74.8286 75.5898 74.8409C75.7035 74.8532 75.8033 74.8701 75.8893 74.8916V76.633C75.7971 76.6053 75.6697 76.5808 75.5069 76.5593C75.3441 76.5378 75.1952 76.527 75.06 76.527C74.7713 76.527 74.5134 76.59 74.2861 76.7159C74.0619 76.8388 73.8838 77.0107 73.7517 77.2319C73.6227 77.453 73.5582 77.7079 73.5582 77.9966V82H71.5957Z" fill="white"/>
</svg>
